<svg width="35" height="47" viewBox="0 0 35 47" fill="none" xmlns="http://www.w3.org/2000/svg">
<path d="M0 5.83333C0 2.61589 2.61589 0 5.83333 0H20.4167V11.6667C20.4167 13.2799 21.7201 14.5833 23.3333 14.5833H35V40.8333C35 44.0508 32.3841 46.6667 29.1667 46.6667H5.83333C2.61589 46.6667 0 44.0508 0 40.8333V5.83333ZM35 11.6667H23.3333V0L35 11.6667Z" fill="#00ADB5"/>
<path d="M17.9978 25.3888L9.24161 34.1415C8.91946 34.4637 8.91946 34.9846 9.24161 35.3033C9.56375 35.622 10.0847 35.6254 10.4034 35.3033L12.3568 33.3499H14.6872C16.3905 33.3499 18.0423 32.8564 19.4509 31.9448C19.8313 31.698 19.6394 31.1565 19.1836 31.1565C19.0088 31.1565 18.8683 31.016 18.8683 30.8412C18.8683 30.7007 18.9608 30.5808 19.091 30.5397L21.8669 29.7069C21.9526 29.6795 22.0314 29.6349 22.0966 29.5698L22.8642 28.8021C23.2104 28.456 22.9636 27.8665 22.477 27.8665H21.3735C21.1987 27.8665 21.0582 27.726 21.0582 27.5513C21.0582 27.4107 21.1507 27.2908 21.2809 27.2497L25.1192 26.0982C25.2563 26.0571 25.3728 25.9645 25.438 25.8343C25.8081 25.1146 26 24.3092 26 23.4833C26 22.0782 25.4414 20.7314 24.4475 19.7375L24.259 19.549C23.2686 18.5586 21.9218 18 20.5167 18C19.1116 18 17.7647 18.5586 16.7709 19.5525L13.217 23.1063C11.572 24.7513 10.6467 26.9824 10.6467 29.3093V31.2045L17.1444 24.7102C17.3569 24.4977 17.7065 24.4977 17.919 24.7102C18.104 24.8953 18.128 25.1763 17.9944 25.3888H17.9978Z" fill="#EEEEEE"/>
</svg>
