<svg width="160" height="54" viewBox="0 0 160 54" fill="none" xmlns="http://www.w3.org/2000/svg">
<path d="M125 5.83333C125 2.61589 127.616 0 130.833 0H145.417V11.6667C145.417 13.2799 146.72 14.5833 148.333 14.5833H160V40.8333C160 44.0508 157.384 46.6667 154.167 46.6667H130.833C127.616 46.6667 125 44.0508 125 40.8333V5.83333ZM160 11.6667H148.333V0L160 11.6667Z" fill="#00ADB5"/>
<path d="M142.998 25.3888L134.242 34.1415C133.919 34.4637 133.919 34.9846 134.242 35.3033C134.564 35.622 135.085 35.6254 135.403 35.3033L137.357 33.3499H139.687C141.39 33.3499 143.042 32.8564 144.451 31.9448C144.831 31.698 144.639 31.1565 144.184 31.1565C144.009 31.1565 143.868 31.016 143.868 30.8412C143.868 30.7007 143.961 30.5808 144.091 30.5397L146.867 29.7069C146.953 29.6795 147.031 29.6349 147.097 29.5698L147.864 28.8021C148.21 28.456 147.964 27.8665 147.477 27.8665H146.373C146.199 27.8665 146.058 27.726 146.058 27.5513C146.058 27.4107 146.151 27.2908 146.281 27.2497L150.119 26.0982C150.256 26.0571 150.373 25.9645 150.438 25.8343C150.808 25.1146 151 24.3092 151 23.4833C151 22.0782 150.441 20.7314 149.448 19.7375L149.259 19.549C148.269 18.5586 146.922 18 145.517 18C144.112 18 142.765 18.5586 141.771 19.5525L138.217 23.1063C136.572 24.7513 135.647 26.9824 135.647 29.3093V31.2045L142.144 24.7102C142.357 24.4977 142.706 24.4977 142.919 24.7102C143.104 24.8953 143.128 25.1763 142.994 25.3888H142.998Z" fill="#EEEEEE"/>
<path d="M3.96307 43V10.2727H7.92614V26.5085H8.30966L23.0114 10.2727H28.1889L14.446 25.0384L28.1889 43H23.3949L12.017 27.7869L7.92614 32.3892V43H3.96307ZM41.2966 43.5114C38.9316 43.5114 36.8914 42.9893 35.1762 41.9453C33.4717 40.8906 32.156 39.4205 31.2291 37.5348C30.3129 35.6385 29.8548 33.4332 29.8548 30.919C29.8548 28.4048 30.3129 26.1889 31.2291 24.2713C32.156 22.343 33.445 20.8409 35.0963 19.7649C36.7583 18.6783 38.6972 18.1349 40.9131 18.1349C42.1915 18.1349 43.4539 18.348 44.7004 18.7741C45.9468 19.2003 47.0814 19.8928 48.1041 20.8516C49.1269 21.7997 49.9419 23.0568 50.5491 24.6229C51.1563 26.1889 51.46 28.1172 51.46 30.4077V32.0057H32.5395V28.7457H47.6247C47.6247 27.3608 47.3477 26.125 46.7938 25.0384C46.2504 23.9517 45.4727 23.0941 44.4607 22.4656C43.4593 21.837 42.2767 21.5227 40.9131 21.5227C39.411 21.5227 38.1112 21.8956 37.0139 22.6413C35.9273 23.3764 35.091 24.3352 34.5051 25.5178C33.9191 26.7003 33.6262 27.968 33.6262 29.321V31.4943C33.6262 33.348 33.9458 34.9194 34.585 36.2085C35.2348 37.4869 36.135 38.4616 37.2856 39.1328C38.4362 39.7933 39.7732 40.1236 41.2966 40.1236C42.2874 40.1236 43.1823 39.9851 43.9813 39.7081C44.7909 39.4205 45.4887 38.9943 46.0747 38.4297C46.6606 37.8544 47.1134 37.1406 47.433 36.2884L51.0764 37.3111C50.6929 38.5469 50.0484 39.6335 49.1428 40.571C48.2373 41.4979 47.1187 42.2223 45.787 42.7443C44.4553 43.2557 42.9585 43.5114 41.2966 43.5114ZM67.488 43.5114C65.123 43.5114 63.0828 42.9893 61.3676 41.9453C59.6631 40.8906 58.3474 39.4205 57.4205 37.5348C56.5044 35.6385 56.0463 33.4332 56.0463 30.919C56.0463 28.4048 56.5044 26.1889 57.4205 24.2713C58.3474 22.343 59.6365 20.8409 61.2877 19.7649C62.9497 18.6783 64.8886 18.1349 67.1045 18.1349C68.3829 18.1349 69.6453 18.348 70.8918 18.7741C72.1382 19.2003 73.2728 19.8928 74.2955 20.8516C75.3183 21.7997 76.1333 23.0568 76.7405 24.6229C77.3477 26.1889 77.6514 28.1172 77.6514 30.4077V32.0057H58.7309V28.7457H73.8161C73.8161 27.3608 73.5392 26.125 72.9852 25.0384C72.4419 23.9517 71.6642 23.0941 70.6521 22.4656C69.6507 21.837 68.4681 21.5227 67.1045 21.5227C65.6024 21.5227 64.3026 21.8956 63.2053 22.6413C62.1187 23.3764 61.2824 24.3352 60.6965 25.5178C60.1105 26.7003 59.8176 27.968 59.8176 29.321V31.4943C59.8176 33.348 60.1372 34.9194 60.7764 36.2085C61.4262 37.4869 62.3264 38.4616 63.477 39.1328C64.6276 39.7933 65.9646 40.1236 67.488 40.1236C68.4788 40.1236 69.3737 39.9851 70.1727 39.7081C70.9823 39.4205 71.6801 38.9943 72.2661 38.4297C72.852 37.8544 73.3048 37.1406 73.6244 36.2884L77.2678 37.3111C76.8843 38.5469 76.2398 39.6335 75.3343 40.571C74.4287 41.4979 73.3101 42.2223 71.9784 42.7443C70.6468 43.2557 69.1499 43.5114 67.488 43.5114ZM83.3882 52.2045V18.4545H87.0317V22.3537H87.4791C87.7561 21.9276 88.1396 21.3842 88.6297 20.7237C89.1304 20.0526 89.8442 19.456 90.771 18.9339C91.7085 18.4013 92.9763 18.1349 94.5743 18.1349C96.6411 18.1349 98.4628 18.6516 100.04 19.685C101.616 20.7184 102.847 22.1832 103.731 24.0795C104.615 25.9759 105.057 28.2131 105.057 30.7912C105.057 33.3906 104.615 35.6438 103.731 37.5508C102.847 39.4471 101.622 40.9173 100.055 41.9613C98.4894 42.9947 96.6837 43.5114 94.6382 43.5114C93.0615 43.5114 91.7991 43.2504 90.8509 42.7283C89.9028 42.1957 89.173 41.5937 88.6617 40.9226C88.1503 40.2408 87.7561 39.6761 87.4791 39.2287H87.1595V52.2045H83.3882ZM87.0956 30.7273C87.0956 32.581 87.3673 34.2163 87.9106 35.6332C88.4539 37.0394 89.2476 38.142 90.2916 38.9411C91.3357 39.7294 92.6141 40.1236 94.1269 40.1236C95.7036 40.1236 97.0193 39.7081 98.074 38.8771C99.1393 38.0355 99.9383 36.9062 100.471 35.4893C101.014 34.0618 101.286 32.4744 101.286 30.7273C101.286 29.0014 101.02 27.446 100.487 26.0611C99.9649 24.6655 99.1713 23.5629 98.1059 22.7532C97.0512 21.9329 95.7249 21.5227 94.1269 21.5227C92.5928 21.5227 91.3037 21.9116 90.2597 22.6893C89.2156 23.4563 88.4273 24.5323 87.8946 25.9173C87.3619 27.2915 87.0956 28.8949 87.0956 30.7273Z" fill="#EEEEEE"/>
</svg>
